<svg width="90" height="27" viewBox="0 0 90 27" fill="none" xmlns="http://www.w3.org/2000/svg">
<path d="M51.6638 21L57.0638 6.68H59.1438L64.5438 21H62.5038L61.1238 17.12H55.1038L53.7038 21H51.6638ZM55.7238 15.4H60.4838L58.1438 8.94H58.0638L55.7238 15.4ZM71.1009 21.32C70.3542 21.32 69.6809 21.16 69.0809 20.84C68.4942 20.52 68.0542 20.12 67.7609 19.64H67.6809L67.7609 21V25.32H65.9209V11.2H67.6809V12.56H67.7609C68.0542 12.08 68.4942 11.68 69.0809 11.36C69.6809 11.04 70.3542 10.88 71.1009 10.88C72.3675 10.88 73.4609 11.38 74.3809 12.38C75.3009 13.38 75.7609 14.62 75.7609 16.1C75.7609 17.58 75.3009 18.82 74.3809 19.82C73.4609 20.82 72.3675 21.32 71.1009 21.32ZM70.8009 19.64C71.6542 19.64 72.3875 19.32 73.0009 18.68C73.6142 18.0267 73.9209 17.1667 73.9209 16.1C73.9209 15.0333 73.6142 14.18 73.0009 13.54C72.3875 12.8867 71.6542 12.56 70.8009 12.56C69.9342 12.56 69.1942 12.88 68.5809 13.52C67.9809 14.16 67.6809 15.02 67.6809 16.1C67.6809 17.18 67.9809 18.04 68.5809 18.68C69.1942 19.32 69.9342 19.64 70.8009 19.64ZM82.3509 21.32C81.6042 21.32 80.9309 21.16 80.3309 20.84C79.7442 20.52 79.3042 20.12 79.0109 19.64H78.9309L79.0109 21V25.32H77.1709V11.2H78.9309V12.56H79.0109C79.3042 12.08 79.7442 11.68 80.3309 11.36C80.9309 11.04 81.6042 10.88 82.3509 10.88C83.6175 10.88 84.7109 11.38 85.6309 12.38C86.5509 13.38 87.0109 14.62 87.0109 16.1C87.0109 17.58 86.5509 18.82 85.6309 19.82C84.7109 20.82 83.6175 21.32 82.3509 21.32ZM82.0509 19.64C82.9042 19.64 83.6375 19.32 84.2509 18.68C84.8642 18.0267 85.1709 17.1667 85.1709 16.1C85.1709 15.0333 84.8642 14.18 84.2509 13.54C83.6375 12.8867 82.9042 12.56 82.0509 12.56C81.1842 12.56 80.4442 12.88 79.8309 13.52C79.2309 14.16 78.9309 15.02 78.9309 16.1C78.9309 17.18 79.2309 18.04 79.8309 18.68C80.4442 19.32 81.1842 19.64 82.0509 19.64Z" fill="#2D2D2D"/>
<path d="M2.62555 21V6.68H7.80555C8.92555 6.68 9.89221 7.05333 10.7055 7.8C11.5322 8.53333 11.9455 9.46 11.9455 10.58C11.9455 11.26 11.7655 11.86 11.4055 12.38C11.0589 12.9 10.5922 13.2933 10.0055 13.56V13.64C10.7122 13.88 11.2922 14.2933 11.7455 14.88C12.1989 15.4667 12.4255 16.1467 12.4255 16.92C12.4255 18.0933 11.9922 19.0667 11.1255 19.84C10.2722 20.6133 9.25888 21 8.08555 21H2.62555ZM4.46555 12.82H7.80555C8.49888 12.82 9.05221 12.5933 9.46555 12.14C9.89221 11.6733 10.1055 11.1667 10.1055 10.62C10.1055 10.0733 9.89888 9.57333 9.48555 9.12C9.08555 8.66667 8.55221 8.44 7.88555 8.44H4.46555V12.82ZM4.46555 19.24H8.16555C8.87221 19.24 9.44555 18.9933 9.88555 18.5C10.3255 18.0067 10.5455 17.4667 10.5455 16.88C10.5455 16.2933 10.3189 15.76 9.86555 15.28C9.41221 14.7867 8.81888 14.54 8.08555 14.54H4.46555V19.24ZM16.1805 8.74C15.9272 8.99333 15.6205 9.12 15.2605 9.12C14.9005 9.12 14.5939 8.99333 14.3405 8.74C14.0872 8.48667 13.9605 8.18 13.9605 7.82C13.9605 7.46 14.0872 7.15333 14.3405 6.9C14.5939 6.64667 14.9005 6.52 15.2605 6.52C15.6205 6.52 15.9272 6.64667 16.1805 6.9C16.4339 7.15333 16.5605 7.46 16.5605 7.82C16.5605 8.18 16.4339 8.48667 16.1805 8.74ZM16.1805 21H14.3405V11.2H16.1805V21ZM20.3351 11.2V12.56H20.4151C20.6817 12.0933 21.1017 11.7 21.6751 11.38C22.2484 11.0467 22.8617 10.88 23.5151 10.88C24.7284 10.88 25.6551 11.2533 26.2951 12C26.9351 12.7467 27.2551 13.7467 27.2551 15V21H25.4151V15.28C25.4151 13.4667 24.6084 12.56 22.9951 12.56C22.2351 12.56 21.6151 12.8667 21.1351 13.48C20.6551 14.08 20.4151 14.78 20.4151 15.58V21H18.5751V11.2H20.3351ZM33.5773 25.64C32.4173 25.64 31.4706 25.3467 30.7373 24.76C30.0039 24.1867 29.4773 23.5267 29.1573 22.78L30.8373 22.08C31.0239 22.6133 31.3639 23.06 31.8573 23.42C32.3639 23.78 32.9373 23.96 33.5773 23.96C34.5906 23.96 35.3839 23.6533 35.9573 23.04C36.5439 22.44 36.8373 21.62 36.8373 20.58V19.64H36.7573C36.4373 20.12 35.9839 20.52 35.3973 20.84C34.8106 21.16 34.1506 21.32 33.4173 21.32C32.1506 21.32 31.0573 20.82 30.1373 19.82C29.2173 18.82 28.7573 17.58 28.7573 16.1C28.7573 14.62 29.2173 13.38 30.1373 12.38C31.0573 11.38 32.1506 10.88 33.4173 10.88C34.1506 10.88 34.8106 11.04 35.3973 11.36C35.9839 11.68 36.4373 12.08 36.7573 12.56H36.8373V11.2H38.5973V20.5C38.5973 22.18 38.1106 23.4533 37.1373 24.32C36.1639 25.2 34.9773 25.64 33.5773 25.64ZM33.7173 19.64C34.5839 19.64 35.3173 19.32 35.9173 18.68C36.5306 18.04 36.8373 17.18 36.8373 16.1C36.8373 15.02 36.5306 14.16 35.9173 13.52C35.3173 12.88 34.5839 12.56 33.7173 12.56C32.8639 12.56 32.1306 12.8867 31.5173 13.54C30.9039 14.18 30.5973 15.0333 30.5973 16.1C30.5973 17.1667 30.9039 18.0267 31.5173 18.68C32.1306 19.32 32.8639 19.64 33.7173 19.64ZM41.603 12.38C42.5497 11.38 43.7564 10.88 45.223 10.88C46.6897 10.88 47.8964 11.38 48.843 12.38C49.7897 13.3667 50.263 14.6067 50.263 16.1C50.263 17.5933 49.7897 18.84 48.843 19.84C47.8964 20.8267 46.6897 21.32 45.223 21.32C43.7564 21.32 42.5497 20.8267 41.603 19.84C40.6564 18.84 40.183 17.5933 40.183 16.1C40.183 14.6067 40.6564 13.3667 41.603 12.38ZM42.963 18.68C43.603 19.32 44.3564 19.64 45.223 19.64C46.0897 19.64 46.8364 19.32 47.463 18.68C48.103 18.0267 48.423 17.1667 48.423 16.1C48.423 15.0333 48.103 14.18 47.463 13.54C46.8364 12.8867 46.0897 12.56 45.223 12.56C44.3564 12.56 43.603 12.8867 42.963 13.54C42.3364 14.18 42.023 15.0333 42.023 16.1C42.023 17.1667 42.3364 18.0267 42.963 18.68Z" fill="#2B6CB0"/>
<path d="M2.62555 21H2.42555V21.2H2.62555V21ZM2.62555 6.68V6.48H2.42555V6.68H2.62555ZM10.7055 7.8L10.5703 7.94735L10.5728 7.94961L10.7055 7.8ZM11.4055 12.38L11.2411 12.2661L11.2391 12.2691L11.4055 12.38ZM10.0055 13.56L9.92279 13.3779L9.80555 13.4312V13.56H10.0055ZM10.0055 13.64H9.80555V13.7833L9.94123 13.8294L10.0055 13.64ZM11.7455 14.88L11.5873 15.0023L11.7455 14.88ZM11.1255 19.84L10.9924 19.6908L10.9912 19.6918L11.1255 19.84ZM4.46555 12.82H4.26555V13.02H4.46555V12.82ZM9.46555 12.14L9.31794 12.005L9.31776 12.0052L9.46555 12.14ZM9.48555 9.12L9.33556 9.25234L9.33776 9.25475L9.48555 9.12ZM4.46555 8.44V8.24H4.26555V8.44H4.46555ZM4.46555 19.24H4.26555V19.44H4.46555V19.24ZM9.88555 18.5L10.0348 18.6331L9.88555 18.5ZM9.86555 15.28L9.71827 15.4153L9.72014 15.4173L9.86555 15.28ZM4.46555 14.54V14.34H4.26555V14.54H4.46555ZM2.82555 21V6.68H2.42555V21H2.82555ZM2.62555 6.88H7.80555V6.48H2.62555V6.88ZM7.80555 6.88C8.87626 6.88 9.79444 7.23507 10.5703 7.94733L10.8408 7.65267C9.98998 6.87159 8.97484 6.48 7.80555 6.48V6.88ZM10.5728 7.94961C11.356 8.64441 11.7455 9.51631 11.7455 10.58H12.1455C12.1455 9.40369 11.7084 8.42226 10.8383 7.65038L10.5728 7.94961ZM11.7455 10.58C11.7455 11.2225 11.5762 11.7822 11.2411 12.2662L11.57 12.4938C11.9549 11.9378 12.1455 11.2975 12.1455 10.58H11.7455ZM11.2391 12.2691C10.9138 12.757 10.4766 13.1262 9.92279 13.3779L10.0883 13.7421C10.7078 13.4605 11.2039 13.043 11.572 12.4909L11.2391 12.2691ZM9.80555 13.56V13.64H10.2055V13.56H9.80555ZM9.94123 13.8294C10.6109 14.0568 11.1582 14.4469 11.5873 15.0023L11.9038 14.7577C11.4263 14.1397 10.8135 13.7032 10.0699 13.4506L9.94123 13.8294ZM11.5873 15.0023C12.0123 15.5523 12.2255 16.1889 12.2255 16.92H12.6255C12.6255 16.1045 12.3854 15.381 11.9038 14.7577L11.5873 15.0023ZM12.2255 16.92C12.2255 18.037 11.816 18.9558 10.9924 19.6908L11.2587 19.9892C12.1684 19.1775 12.6255 18.1497 12.6255 16.92H12.2255ZM10.9912 19.6918C10.1755 20.4311 9.21027 20.8 8.08555 20.8V21.2C9.30749 21.2 10.369 20.7956 11.2599 19.9882L10.9912 19.6918ZM8.08555 20.8H2.62555V21.2H8.08555V20.8ZM4.46555 13.02H7.80555V12.62H4.46555V13.02ZM7.80555 13.02C8.54703 13.02 9.15697 12.7753 9.61334 12.2748L9.31776 12.0052C8.94745 12.4114 8.45074 12.62 7.80555 12.62V13.02ZM9.61315 12.275C10.0679 11.7776 10.3055 11.2244 10.3055 10.62H9.90555C9.90555 11.1089 9.71654 11.5691 9.31794 12.005L9.61315 12.275ZM10.3055 10.62C10.3055 10.0173 10.0758 9.47057 9.63334 8.98525L9.33776 9.25475C9.72192 9.67609 9.90555 10.1294 9.90555 10.62H10.3055ZM9.63552 8.98767C9.19339 8.4866 8.60299 8.24 7.88555 8.24V8.64C8.50144 8.64 8.97771 8.84674 9.33558 9.25232L9.63552 8.98767ZM7.88555 8.24H4.46555V8.64H7.88555V8.24ZM4.26555 8.44V12.82H4.66555V8.44H4.26555ZM4.46555 19.44H8.16555V19.04H4.46555V19.44ZM8.16555 19.44C8.92478 19.44 9.554 19.1722 10.0348 18.6331L9.73629 18.3669C9.33709 18.8145 8.81964 19.04 8.16555 19.04V19.44ZM10.0348 18.6331C10.503 18.1081 10.7455 17.5221 10.7455 16.88H10.3455C10.3455 17.4113 10.1481 17.9052 9.73629 18.3669L10.0348 18.6331ZM10.7455 16.88C10.7455 16.2357 10.4946 15.6548 10.011 15.1427L9.72014 15.4173C10.1432 15.8652 10.3455 16.3509 10.3455 16.88H10.7455ZM10.0128 15.1447C9.51779 14.606 8.86895 14.34 8.08555 14.34V14.74C8.76881 14.74 9.30664 14.9674 9.71828 15.4153L10.0128 15.1447ZM8.08555 14.34H4.46555V14.74H8.08555V14.34ZM4.26555 14.54V19.24H4.66555V14.54H4.26555ZM16.1805 8.74L16.0391 8.59858L16.1805 8.74ZM14.3405 8.74L14.1991 8.88142L14.3405 8.74ZM14.3405 6.9L14.1991 6.75858L14.3405 6.9ZM16.1805 6.9L16.0391 7.04142L16.1805 6.9ZM16.1805 21V21.2H16.3805V21H16.1805ZM14.3405 21H14.1405V21.2H14.3405V21ZM14.3405 11.2V11H14.1405V11.2H14.3405ZM16.1805 11.2H16.3805V11H16.1805V11.2ZM16.0391 8.59858C15.8235 8.8142 15.5678 8.92 15.2605 8.92V9.32C15.6733 9.32 16.0309 9.17247 16.322 8.88142L16.0391 8.59858ZM15.2605 8.92C14.9533 8.92 14.6976 8.8142 14.482 8.59858L14.1991 8.88142C14.4902 9.17247 14.8478 9.32 15.2605 9.32V8.92ZM14.482 8.59858C14.2663 8.38296 14.1605 8.12724 14.1605 7.82H13.7605C13.7605 8.23275 13.9081 8.59038 14.1991 8.88142L14.482 8.59858ZM14.1605 7.82C14.1605 7.51275 14.2663 7.25704 14.482 7.04142L14.1991 6.75858C13.9081 7.04962 13.7605 7.40724 13.7605 7.82H14.1605ZM14.482 7.04142C14.6976 6.8258 14.9533 6.72 15.2605 6.72V6.32C14.8478 6.32 14.4902 6.46753 14.1991 6.75858L14.482 7.04142ZM15.2605 6.72C15.5678 6.72 15.8235 6.8258 16.0391 7.04142L16.322 6.75858C16.0309 6.46753 15.6733 6.32 15.2605 6.32V6.72ZM16.0391 7.04142C16.2547 7.25704 16.3605 7.51275 16.3605 7.82H16.7605C16.7605 7.40724 16.613 7.04962 16.322 6.75858L16.0391 7.04142ZM16.3605 7.82C16.3605 8.12724 16.2547 8.38296 16.0391 8.59858L16.322 8.88142C16.613 8.59038 16.7605 8.23275 16.7605 7.82H16.3605ZM16.1805 20.8H14.3405V21.2H16.1805V20.8ZM14.5405 21V11.2H14.1405V21H14.5405ZM14.3405 11.4H16.1805V11H14.3405V11.4ZM15.9805 11.2V21H16.3805V11.2H15.9805ZM20.3351 11.2H20.5351V11H20.3351V11.2ZM20.3351 12.56H20.1351V12.76H20.3351V12.56ZM20.4151 12.56V12.76H20.5311L20.5887 12.6592L20.4151 12.56ZM21.6751 11.38L21.7726 11.5547L21.7756 11.5529L21.6751 11.38ZM26.2951 12L26.4469 11.8698L26.2951 12ZM27.2551 21V21.2H27.4551V21H27.2551ZM25.4151 21H25.2151V21.2H25.4151V21ZM21.1351 13.48L21.2913 13.6049L21.2926 13.6033L21.1351 13.48ZM20.4151 21V21.2H20.6151V21H20.4151ZM18.5751 21H18.3751V21.2H18.5751V21ZM18.5751 11.2V11H18.3751V11.2H18.5751ZM20.1351 11.2V12.56H20.5351V11.2H20.1351ZM20.3351 12.76H20.4151V12.36H20.3351V12.76ZM20.5887 12.6592C20.8337 12.2305 21.224 11.8608 21.7726 11.5546L21.5776 11.2054C20.9795 11.5392 20.5298 11.9562 20.2414 12.4608L20.5887 12.6592ZM21.7756 11.5529C22.3189 11.237 22.8976 11.08 23.5151 11.08V10.68C22.8259 10.68 22.1779 10.8563 21.5746 11.2071L21.7756 11.5529ZM23.5151 11.08C24.6849 11.08 25.5499 11.438 26.1432 12.1302L26.4469 11.8698C25.7602 11.0687 24.7719 10.68 23.5151 10.68V11.08ZM26.1432 12.1302C26.7444 12.8315 27.0551 13.781 27.0551 15H27.4551C27.4551 13.7124 27.1258 12.6618 26.4469 11.8698L26.1432 12.1302ZM27.0551 15V21H27.4551V15H27.0551ZM27.2551 20.8H25.4151V21.2H27.2551V20.8ZM25.6151 21V15.28H25.2151V21H25.6151ZM25.6151 15.28C25.6151 14.3479 25.4083 13.6114 24.9595 13.1071C24.5068 12.5982 23.839 12.36 22.9951 12.36V12.76C23.7645 12.76 24.3067 12.9751 24.6607 13.3729C25.0186 13.7752 25.2151 14.3988 25.2151 15.28H25.6151ZM22.9951 12.36C22.1718 12.36 21.4944 12.6964 20.9776 13.3567L21.2926 13.6033C21.7358 13.037 22.2983 12.76 22.9951 12.76V12.36ZM20.9789 13.3551C20.4693 13.9921 20.2151 14.7366 20.2151 15.58H20.6151C20.6151 14.8234 20.8409 14.1679 21.2913 13.6049L20.9789 13.3551ZM20.2151 15.58V21H20.6151V15.58H20.2151ZM20.4151 20.8H18.5751V21.2H20.4151V20.8ZM18.7751 21V11.2H18.3751V21H18.7751ZM18.5751 11.4H20.3351V11H18.5751V11.4ZM30.7373 24.76L30.8622 24.6038L30.8605 24.6024L30.7373 24.76ZM29.1573 22.78L29.0803 22.5954L28.8939 22.6731L28.9734 22.8588L29.1573 22.78ZM30.8373 22.08L31.026 22.0139L30.956 21.8139L30.7603 21.8954L30.8373 22.08ZM31.8573 23.42L31.7394 23.5816L31.7414 23.583L31.8573 23.42ZM35.9573 23.04L35.8142 22.9001L35.8112 22.9034L35.9573 23.04ZM36.8373 19.64H37.0373V19.44H36.8373V19.64ZM36.7573 19.64V19.44H36.6502L36.5909 19.5291L36.7573 19.64ZM30.1373 19.82L30.2845 19.6846L30.1373 19.82ZM30.1373 12.38L29.9901 12.2446L30.1373 12.38ZM35.3973 11.36L35.3015 11.5356L35.3973 11.36ZM36.7573 12.56L36.5909 12.6709L36.6502 12.76H36.7573V12.56ZM36.8373 12.56V12.76H37.0373V12.56H36.8373ZM36.8373 11.2V11H36.6373V11.2H36.8373ZM38.5973 11.2H38.7973V11H38.5973V11.2ZM37.1373 24.32L37.0043 24.1706L37.0031 24.1716L37.1373 24.32ZM35.9173 18.68L35.7729 18.5416L35.7714 18.5432L35.9173 18.68ZM35.9173 13.52L35.7714 13.6568L35.7729 13.6584L35.9173 13.52ZM31.5173 13.54L31.6617 13.6784L31.6631 13.6769L31.5173 13.54ZM31.5173 18.68L31.3714 18.8169L31.3729 18.8184L31.5173 18.68ZM33.5773 25.44C32.4517 25.44 31.5524 25.156 30.8622 24.6038L30.6123 24.9162C31.3888 25.5374 32.3828 25.84 33.5773 25.84V25.44ZM30.8605 24.6024C30.1497 24.0468 29.646 23.4127 29.3411 22.7012L28.9734 22.8588C29.3085 23.6407 29.8581 24.3265 30.6141 24.9176L30.8605 24.6024ZM29.2342 22.9646L30.9142 22.2646L30.7603 21.8954L29.0803 22.5954L29.2342 22.9646ZM30.6485 22.1461C30.8497 22.7208 31.2161 23.1997 31.7394 23.5816L31.9752 23.2584C31.5118 22.9203 31.1982 22.5059 31.026 22.0139L30.6485 22.1461ZM31.7414 23.583C32.283 23.9678 32.8971 24.16 33.5773 24.16V23.76C32.9775 23.76 32.4449 23.5922 31.9731 23.257L31.7414 23.583ZM33.5773 24.16C34.6336 24.16 35.4845 23.8386 36.1034 23.1766L35.8112 22.9034C35.2833 23.4681 34.5476 23.76 33.5773 23.76V24.16ZM36.1003 23.1798C36.7318 22.534 37.0373 21.6591 37.0373 20.58H36.6373C36.6373 21.5809 36.3561 22.346 35.8143 22.9002L36.1003 23.1798ZM37.0373 20.58V19.64H36.6373V20.58H37.0373ZM36.8373 19.44H36.7573V19.84H36.8373V19.44ZM36.5909 19.5291C36.2915 19.9781 35.8643 20.3575 35.3015 20.6644L35.493 21.0156C36.1036 20.6825 36.5831 20.2619 36.9237 19.7509L36.5909 19.5291ZM35.3015 20.6644C34.747 20.9669 34.1205 21.12 33.4173 21.12V21.52C34.1807 21.52 34.8742 21.3531 35.493 21.0156L35.3015 20.6644ZM33.4173 21.12C32.2109 21.12 31.1697 20.6468 30.2845 19.6846L29.9901 19.9554C30.9449 20.9932 32.0903 21.52 33.4173 21.52V21.12ZM30.2845 19.6846C29.4016 18.7249 28.9573 17.5347 28.9573 16.1H28.5573C28.5573 17.6253 29.033 18.9151 29.9901 19.9554L30.2845 19.6846ZM28.9573 16.1C28.9573 14.6653 29.4016 13.4751 30.2845 12.5154L29.9901 12.2446C29.033 13.2849 28.5573 14.5747 28.5573 16.1H28.9573ZM30.2845 12.5154C31.1697 11.5532 32.2109 11.08 33.4173 11.08V10.68C32.0903 10.68 30.9449 11.2068 29.9901 12.2446L30.2845 12.5154ZM33.4173 11.08C34.1205 11.08 34.747 11.2331 35.3015 11.5356L35.493 11.1844C34.8742 10.8469 34.1807 10.68 33.4173 10.68V11.08ZM35.3015 11.5356C35.8643 11.8425 36.2915 12.2219 36.5909 12.6709L36.9237 12.4491C36.5831 11.9381 36.1036 11.5175 35.493 11.1844L35.3015 11.5356ZM36.7573 12.76H36.8373V12.36H36.7573V12.76ZM37.0373 12.56V11.2H36.6373V12.56H37.0373ZM36.8373 11.4H38.5973V11H36.8373V11.4ZM38.3973 11.2V20.5H38.7973V11.2H38.3973ZM38.3973 20.5C38.3973 22.1405 37.9234 23.3522 37.0043 24.1706L37.2703 24.4694C38.2978 23.5545 38.7973 22.2195 38.7973 20.5H38.3973ZM37.0031 24.1716C36.0692 25.0161 34.9313 25.44 33.5773 25.44V25.84C35.0232 25.84 36.2587 25.3839 37.2714 24.4684L37.0031 24.1716ZM33.7173 19.84C34.64 19.84 35.4259 19.4966 36.0632 18.8168L35.7714 18.5432C35.2086 19.1434 34.5279 19.44 33.7173 19.44V19.84ZM36.0617 18.8184C36.7182 18.1334 37.0373 17.2197 37.0373 16.1H36.6373C36.6373 17.1403 36.343 17.9466 35.7729 18.5416L36.0617 18.8184ZM37.0373 16.1C37.0373 14.9803 36.7182 14.0666 36.0617 13.3816L35.7729 13.6584C36.343 14.2534 36.6373 15.0597 36.6373 16.1H37.0373ZM36.0632 13.3832C35.4259 12.7034 34.64 12.36 33.7173 12.36V12.76C34.5279 12.76 35.2086 13.0566 35.7714 13.6568L36.0632 13.3832ZM33.7173 12.36C32.8057 12.36 32.0205 12.7118 31.3715 13.4031L31.6631 13.6769C32.2407 13.0616 32.9222 12.76 33.7173 12.76V12.36ZM31.3729 13.4016C30.7168 14.0862 30.3973 14.9929 30.3973 16.1H30.7973C30.7973 15.0738 31.091 14.2738 31.6617 13.6784L31.3729 13.4016ZM30.3973 16.1C30.3973 17.2072 30.7169 18.1196 31.3715 18.8169L31.6631 18.5431C31.091 17.9337 30.7973 17.1261 30.7973 16.1H30.3973ZM31.3729 18.8184C32.0223 19.496 32.8071 19.84 33.7173 19.84V19.44C32.9208 19.44 32.2389 19.144 31.6617 18.5416L31.3729 18.8184ZM41.603 12.38L41.7474 12.5185L41.7483 12.5175L41.603 12.38ZM48.843 12.38L48.6978 12.5175L48.6987 12.5185L48.843 12.38ZM48.843 19.84L48.9874 19.9785L48.9883 19.9775L48.843 19.84ZM41.603 19.84L41.4578 19.9775L41.4587 19.9785L41.603 19.84ZM42.963 18.68L42.8187 18.8185L42.8216 18.8214L42.963 18.68ZM47.463 18.68L47.3202 18.54L47.3201 18.5401L47.463 18.68ZM47.463 13.54L47.3187 13.6785L47.3216 13.6814L47.463 13.54ZM42.963 13.54L42.8202 13.4L42.8201 13.4001L42.963 13.54ZM41.7483 12.5175C42.6545 11.5602 43.8073 11.08 45.223 11.08V10.68C43.7054 10.68 42.4449 11.1998 41.4578 12.2425L41.7483 12.5175ZM45.223 11.08C46.6388 11.08 47.7916 11.5602 48.6978 12.5175L48.9883 12.2425C48.0012 11.1998 46.7407 10.68 45.223 10.68V11.08ZM48.6987 12.5185C49.6062 13.4643 50.063 14.6531 50.063 16.1H50.463C50.463 14.5603 49.9732 13.269 48.9874 12.2415L48.6987 12.5185ZM50.063 16.1C50.063 17.5469 49.6062 18.7429 48.6978 19.7025L48.9883 19.9775C49.9732 18.9371 50.463 17.6398 50.463 16.1H50.063ZM48.6987 19.7015C47.7927 20.6458 46.6396 21.12 45.223 21.12V21.52C46.7398 21.52 48 21.0075 48.9874 19.9785L48.6987 19.7015ZM45.223 21.12C43.8065 21.12 42.6534 20.6458 41.7474 19.7015L41.4587 19.9785C42.4461 21.0075 43.7063 21.52 45.223 21.52V21.12ZM41.7483 19.7025C40.8399 18.7429 40.383 17.5469 40.383 16.1H39.983C39.983 17.6398 40.4729 18.9371 41.4578 19.9775L41.7483 19.7025ZM40.383 16.1C40.383 14.6531 40.8399 13.4643 41.7474 12.5185L41.4587 12.2415C40.4729 13.269 39.983 14.5603 39.983 16.1H40.383ZM42.8216 18.8214C43.4973 19.4971 44.3008 19.84 45.223 19.84V19.44C44.412 19.44 43.7088 19.1429 43.1045 18.5386L42.8216 18.8214ZM45.223 19.84C46.1455 19.84 46.9431 19.4969 47.6059 18.8199L47.3201 18.5401C46.7297 19.1431 46.034 19.44 45.223 19.44V19.84ZM47.6059 18.82C48.2886 18.123 48.623 17.2096 48.623 16.1H48.223C48.223 17.1237 47.9175 17.9303 47.3202 18.54L47.6059 18.82ZM48.623 16.1C48.623 14.9905 48.2886 14.0827 47.6045 13.3986L47.3216 13.6814C47.9175 14.2773 48.223 15.0762 48.223 16.1H48.623ZM47.6074 13.4016C46.9449 12.7109 46.1469 12.36 45.223 12.36V12.76C46.0326 12.76 46.7279 13.0625 47.3187 13.6784L47.6074 13.4016ZM45.223 12.36C44.2994 12.36 43.4955 12.7107 42.8202 13.4L43.1059 13.68C43.7106 13.0627 44.4134 12.76 45.223 12.76V12.36ZM42.8201 13.4001C42.15 14.0844 41.823 14.9917 41.823 16.1H42.223C42.223 15.075 42.5227 14.2756 43.1059 13.6799L42.8201 13.4001ZM41.823 16.1C41.823 17.2084 42.1501 18.1213 42.8187 18.8184L43.1074 18.5416C42.5227 17.932 42.223 17.1249 42.223 16.1H41.823Z" fill="#2B6CB0"/>
</svg>
